<svg xmlns="http://www.w3.org/2000/svg" xmlns:xlink="http://www.w3.org/1999/xlink" width="2560" zoomAndPan="magnify" viewBox="0 0 1920 1079.999946" height="1440" preserveAspectRatio="xMidYMid meet" version="1.0"><defs><g/><clipPath id="1fe2803078"><path d="M 0 0 L 1919 0 L 1919 1079 L 0 1079 Z M 0 0 " clip-rule="nonzero"/></clipPath><clipPath id="eb38e59416"><path d="M 51 0 L 1869 0 C 1882.527344 0 1895.496094 5.375 1905.0625 14.9375 C 1914.625 24.5 1920 37.472656 1920 51 L 1920 1029 C 1920 1042.527344 1914.625 1055.496094 1905.0625 1065.0625 C 1895.496094 1074.625 1882.527344 1080 1869 1080 L 51 1080 C 37.472656 1080 24.503906 1074.625 14.9375 1065.0625 C 5.375 1055.496094 0 1042.527344 0 1029 L 0 51 C 0 37.472656 5.375 24.5 14.9375 14.9375 C 24.503906 5.375 37.472656 0 51 0 " clip-rule="nonzero"/></clipPath><clipPath id="2708aa39e3"><path d="M 108 149.527344 L 745.5 149.527344 L 745.5 972.277344 L 108 972.277344 Z M 108 149.527344 " clip-rule="nonzero"/></clipPath></defs><rect x="-192" width="2304" fill="#ffffff" y="-107.999995" height="1295.999935" fill-opacity="1"/><rect x="-192" width="2304" fill="#ffffff" y="-107.999995" height="1295.999935" fill-opacity="1"/><g clip-path="url(#1fe2803078)"><g clip-path="url(#eb38e59416)"><path fill="#16345f" d="M 0 0 L 1918.6875 0 L 1918.6875 1078.3125 L 0 1078.3125 Z M 0 0 " fill-opacity="1" fill-rule="nonzero"/></g></g><path fill="#ffffff" d="M 612.496094 361.847656 L 241.003906 361.847656 L 241.003906 229.148438 L 612.496094 229.148438 Z M 625.761719 202.605469 L 227.738281 202.605469 C 220.429688 202.605469 214.46875 208.566406 214.46875 215.878906 L 214.46875 375.121094 C 214.46875 382.429688 220.429688 388.390625 227.738281 388.390625 L 625.761719 388.390625 C 633.070312 388.390625 639.03125 382.429688 639.03125 375.121094 L 639.03125 215.878906 C 639.03125 208.566406 633.070312 202.605469 625.761719 202.605469 " fill-opacity="1" fill-rule="nonzero"/><path fill="#ffffff" d="M 612.496094 892.65625 L 559.425781 892.65625 L 559.425781 759.953125 L 612.496094 759.953125 Z M 625.761719 733.414062 L 546.15625 733.414062 C 538.851562 733.414062 532.890625 739.375 532.890625 746.683594 L 532.890625 905.925781 C 532.890625 913.234375 538.851562 919.195312 546.15625 919.195312 L 625.761719 919.195312 C 633.070312 919.195312 639.03125 913.234375 639.03125 905.925781 L 639.03125 746.683594 C 639.03125 739.375 633.070312 733.414062 625.761719 733.414062 " fill-opacity="1" fill-rule="nonzero"/><path fill="#ffffff" d="M 612.496094 680.332031 L 559.425781 680.332031 L 559.425781 653.792969 L 612.496094 653.792969 Z M 625.761719 627.253906 L 546.15625 627.253906 C 538.851562 627.253906 532.890625 633.214844 532.890625 640.523438 L 532.890625 693.601562 C 532.890625 700.910156 538.851562 706.875 546.15625 706.875 L 625.761719 706.875 C 633.070312 706.875 639.03125 700.910156 639.03125 693.601562 L 639.03125 640.523438 C 639.03125 633.214844 633.070312 627.253906 625.761719 627.253906 " fill-opacity="1" fill-rule="nonzero"/><path fill="#ffffff" d="M 466.554688 892.65625 C 459.246094 892.65625 453.285156 886.695312 453.285156 879.386719 C 453.285156 872.078125 459.246094 866.113281 466.554688 866.113281 C 473.859375 866.113281 479.820312 872.078125 479.820312 879.386719 C 479.820312 886.695312 473.859375 892.65625 466.554688 892.65625 Z M 466.554688 839.574219 C 444.578125 839.574219 426.75 857.40625 426.75 879.386719 C 426.75 901.363281 444.578125 919.195312 466.554688 919.195312 C 488.527344 919.195312 506.355469 901.363281 506.355469 879.386719 C 506.355469 857.40625 488.527344 839.574219 466.554688 839.574219 " fill-opacity="1" fill-rule="nonzero"/><path fill="#ffffff" d="M 360.414062 892.65625 C 353.105469 892.65625 347.144531 886.695312 347.144531 879.386719 C 347.144531 872.078125 353.105469 866.113281 360.414062 866.113281 C 367.71875 866.113281 373.679688 872.078125 373.679688 879.386719 C 373.679688 886.695312 367.71875 892.65625 360.414062 892.65625 Z M 360.414062 839.574219 C 338.4375 839.574219 320.609375 857.40625 320.609375 879.386719 C 320.609375 901.363281 338.4375 919.195312 360.414062 919.195312 C 382.386719 919.195312 400.214844 901.363281 400.214844 879.386719 C 400.214844 857.40625 382.386719 839.574219 360.414062 839.574219 " fill-opacity="1" fill-rule="nonzero"/><path fill="#ffffff" d="M 254.273438 892.65625 C 246.964844 892.65625 241.003906 886.695312 241.003906 879.386719 C 241.003906 872.078125 246.964844 866.113281 254.273438 866.113281 C 261.578125 866.113281 267.539062 872.078125 267.539062 879.386719 C 267.539062 886.695312 261.578125 892.65625 254.273438 892.65625 Z M 254.273438 839.574219 C 232.296875 839.574219 214.46875 857.40625 214.46875 879.386719 C 214.46875 901.363281 232.296875 919.195312 254.273438 919.195312 C 276.246094 919.195312 294.074219 901.363281 294.074219 879.386719 C 294.074219 857.40625 276.246094 839.574219 254.273438 839.574219 " fill-opacity="1" fill-rule="nonzero"/><path fill="#ffffff" d="M 479.820312 786.496094 L 453.285156 786.496094 L 453.285156 759.953125 L 479.820312 759.953125 Z M 493.085938 733.414062 L 440.019531 733.414062 C 432.710938 733.414062 426.75 739.375 426.75 746.683594 L 426.75 799.765625 C 426.75 807.074219 432.710938 813.035156 440.019531 813.035156 L 493.085938 813.035156 C 500.394531 813.035156 506.355469 807.074219 506.355469 799.765625 L 506.355469 746.683594 C 506.355469 739.375 500.394531 733.414062 493.085938 733.414062 " fill-opacity="1" fill-rule="nonzero"/><path fill="#ffffff" d="M 373.679688 786.496094 L 347.144531 786.496094 L 347.144531 759.953125 L 373.679688 759.953125 Z M 386.949219 733.414062 L 333.878906 733.414062 C 326.570312 733.414062 320.609375 739.375 320.609375 746.683594 L 320.609375 799.765625 C 320.609375 807.074219 326.570312 813.035156 333.878906 813.035156 L 386.949219 813.035156 C 394.253906 813.035156 400.214844 807.074219 400.214844 799.765625 L 400.214844 746.683594 C 400.214844 739.375 394.253906 733.414062 386.949219 733.414062 " fill-opacity="1" fill-rule="nonzero"/><path fill="#ffffff" d="M 267.539062 786.496094 L 241.003906 786.496094 L 241.003906 759.953125 L 267.539062 759.953125 Z M 280.808594 733.414062 L 227.738281 733.414062 C 220.429688 733.414062 214.46875 739.375 214.46875 746.683594 L 214.46875 799.765625 C 214.46875 807.074219 220.429688 813.035156 227.738281 813.035156 L 280.808594 813.035156 C 288.113281 813.035156 294.074219 807.074219 294.074219 799.765625 L 294.074219 746.683594 C 294.074219 739.375 288.113281 733.414062 280.808594 733.414062 " fill-opacity="1" fill-rule="nonzero"/><path fill="#ffffff" d="M 479.820312 680.332031 L 453.285156 680.332031 L 453.285156 653.792969 L 479.820312 653.792969 Z M 493.085938 627.253906 L 440.019531 627.253906 C 432.710938 627.253906 426.75 633.214844 426.75 640.523438 L 426.75 693.601562 C 426.75 700.910156 432.710938 706.875 440.019531 706.875 L 493.085938 706.875 C 500.394531 706.875 506.355469 700.910156 506.355469 693.601562 L 506.355469 640.523438 C 506.355469 633.214844 500.394531 627.253906 493.085938 627.253906 " fill-opacity="1" fill-rule="nonzero"/><path fill="#ffffff" d="M 373.679688 680.332031 L 347.144531 680.332031 L 347.144531 653.792969 L 373.679688 653.792969 Z M 386.949219 627.253906 L 333.878906 627.253906 C 326.570312 627.253906 320.609375 633.214844 320.609375 640.523438 L 320.609375 693.601562 C 320.609375 700.910156 326.570312 706.875 333.878906 706.875 L 386.949219 706.875 C 394.253906 706.875 400.214844 700.910156 400.214844 693.601562 L 400.214844 640.523438 C 400.214844 633.214844 394.253906 627.253906 386.949219 627.253906 " fill-opacity="1" fill-rule="nonzero"/><path fill="#ffffff" d="M 267.539062 680.332031 L 241.003906 680.332031 L 241.003906 653.792969 L 267.539062 653.792969 Z M 280.808594 627.253906 L 227.738281 627.253906 C 220.429688 627.253906 214.46875 633.214844 214.46875 640.523438 L 214.46875 693.601562 C 214.46875 700.910156 220.429688 706.875 227.738281 706.875 L 280.808594 706.875 C 288.113281 706.875 294.074219 700.910156 294.074219 693.601562 L 294.074219 640.523438 C 294.074219 633.214844 288.113281 627.253906 280.808594 627.253906 " fill-opacity="1" fill-rule="nonzero"/><path fill="#ffffff" d="M 479.820312 574.171875 L 453.285156 574.171875 L 453.285156 547.632812 L 479.820312 547.632812 Z M 493.085938 521.089844 L 440.019531 521.089844 C 432.710938 521.089844 426.75 527.050781 426.75 534.359375 L 426.75 587.441406 C 426.75 594.75 432.710938 600.710938 440.019531 600.710938 L 493.085938 600.710938 C 500.394531 600.710938 506.355469 594.75 506.355469 587.441406 L 506.355469 534.359375 C 506.355469 527.050781 500.394531 521.089844 493.085938 521.089844 " fill-opacity="1" fill-rule="nonzero"/><path fill="#ffffff" d="M 373.679688 574.171875 L 347.144531 574.171875 L 347.144531 547.632812 L 373.679688 547.632812 Z M 386.949219 521.089844 L 333.878906 521.089844 C 326.570312 521.089844 320.609375 527.050781 320.609375 534.359375 L 320.609375 587.441406 C 320.609375 594.75 326.570312 600.710938 333.878906 600.710938 L 386.949219 600.710938 C 394.253906 600.710938 400.214844 594.75 400.214844 587.441406 L 400.214844 534.359375 C 400.214844 527.050781 394.253906 521.089844 386.949219 521.089844 " fill-opacity="1" fill-rule="nonzero"/><path fill="#ffffff" d="M 267.539062 574.171875 L 241.003906 574.171875 L 241.003906 547.632812 L 267.539062 547.632812 Z M 280.808594 521.089844 L 227.738281 521.089844 C 220.429688 521.089844 214.46875 527.050781 214.46875 534.359375 L 214.46875 587.441406 C 214.46875 594.75 220.429688 600.710938 227.738281 600.710938 L 280.808594 600.710938 C 288.113281 600.710938 294.074219 594.75 294.074219 587.441406 L 294.074219 534.359375 C 294.074219 527.050781 288.113281 521.089844 280.808594 521.089844 " fill-opacity="1" fill-rule="nonzero"/><path fill="#ffffff" d="M 612.496094 574.171875 L 559.425781 574.171875 L 559.425781 547.632812 L 612.496094 547.632812 Z M 625.761719 521.089844 L 546.15625 521.089844 C 538.851562 521.089844 532.890625 527.050781 532.890625 534.359375 L 532.890625 587.441406 C 532.890625 594.75 538.851562 600.710938 546.15625 600.710938 L 625.761719 600.710938 C 633.070312 600.710938 639.03125 594.75 639.03125 587.441406 L 639.03125 534.359375 C 639.03125 527.050781 633.070312 521.089844 625.761719 521.089844 " fill-opacity="1" fill-rule="nonzero"/><path fill="#ffffff" d="M 294.074219 468.011719 L 241.003906 468.011719 L 241.003906 441.46875 L 294.074219 441.46875 Z M 320.609375 428.199219 C 320.609375 420.890625 314.648438 414.929688 307.34375 414.929688 L 227.738281 414.929688 C 220.429688 414.929688 214.46875 420.890625 214.46875 428.199219 L 214.46875 481.28125 C 214.46875 488.589844 220.429688 494.550781 227.738281 494.550781 L 307.34375 494.550781 C 314.648438 494.550781 320.609375 488.589844 320.609375 481.28125 L 320.609375 428.199219 " fill-opacity="1" fill-rule="nonzero"/><path fill="#ffffff" d="M 373.679688 441.46875 L 426.75 441.46875 L 426.75 468.011719 L 373.679688 468.011719 Z M 440.019531 494.550781 C 447.324219 494.550781 453.285156 488.589844 453.285156 481.28125 L 453.285156 428.199219 C 453.285156 420.890625 447.324219 414.929688 440.019531 414.929688 L 360.414062 414.929688 C 353.105469 414.929688 347.144531 420.890625 347.144531 428.199219 L 347.144531 481.28125 C 347.144531 488.589844 353.105469 494.550781 360.414062 494.550781 L 440.019531 494.550781 " fill-opacity="1" fill-rule="nonzero"/><path fill="#ffffff" d="M 625.761719 414.929688 L 493.085938 414.929688 C 485.78125 414.929688 479.820312 420.890625 479.820312 428.199219 C 479.820312 435.507812 485.78125 441.46875 493.085938 441.46875 L 625.761719 441.46875 C 633.070312 441.46875 639.03125 435.507812 639.03125 428.199219 C 639.03125 420.890625 633.070312 414.929688 625.761719 414.929688 " fill-opacity="1" fill-rule="nonzero"/><path fill="#ffffff" d="M 625.761719 468.011719 L 493.085938 468.011719 C 485.78125 468.011719 479.820312 473.972656 479.820312 481.28125 C 479.820312 488.589844 485.78125 494.550781 493.085938 494.550781 L 625.761719 494.550781 C 633.070312 494.550781 639.03125 488.589844 639.03125 481.28125 C 639.03125 473.972656 633.070312 468.011719 625.761719 468.011719 " fill-opacity="1" fill-rule="nonzero"/><g clip-path="url(#2708aa39e3)"><path fill="#ffffff" d="M 718.636719 879.386719 C 718.636719 886.695312 712.675781 892.65625 705.367188 892.65625 L 692.101562 892.65625 L 692.101562 613.980469 C 692.101562 606.671875 686.140625 600.710938 678.832031 600.710938 C 671.527344 600.710938 665.566406 606.671875 665.566406 613.980469 L 665.566406 932.464844 C 665.566406 939.773438 659.605469 945.734375 652.296875 945.734375 L 201.203125 945.734375 C 193.894531 945.734375 187.933594 939.773438 187.933594 932.464844 L 187.933594 189.335938 C 187.933594 182.027344 193.894531 176.066406 201.203125 176.066406 L 652.296875 176.066406 C 659.605469 176.066406 665.566406 182.027344 665.566406 189.335938 L 665.566406 560.902344 C 665.566406 568.210938 671.527344 574.171875 678.832031 574.171875 C 686.140625 574.171875 692.101562 568.210938 692.101562 560.902344 L 692.101562 521.089844 L 705.367188 521.089844 C 712.675781 521.089844 718.636719 527.050781 718.636719 534.359375 Z M 148.132812 892.65625 C 140.824219 892.65625 134.863281 886.695312 134.863281 879.386719 L 134.863281 534.359375 C 134.863281 527.050781 140.824219 521.089844 148.132812 521.089844 L 161.398438 521.089844 L 161.398438 892.65625 Z M 705.367188 494.550781 L 692.101562 494.550781 L 692.101562 189.335938 C 692.101562 167.359375 674.273438 149.527344 652.296875 149.527344 L 201.203125 149.527344 C 179.226562 149.527344 161.398438 167.359375 161.398438 189.335938 L 161.398438 494.550781 L 148.132812 494.550781 C 126.15625 494.550781 108.328125 512.382812 108.328125 534.359375 L 108.328125 879.386719 C 108.328125 901.363281 126.15625 919.195312 148.132812 919.195312 L 161.398438 919.195312 L 161.398438 932.464844 C 161.398438 954.445312 179.226562 972.277344 201.203125 972.277344 L 652.296875 972.277344 C 674.273438 972.277344 692.101562 954.445312 692.101562 932.464844 L 692.101562 919.195312 L 705.367188 919.195312 C 727.34375 919.195312 745.171875 901.363281 745.171875 879.386719 L 745.171875 534.359375 C 745.171875 512.382812 727.34375 494.550781 705.367188 494.550781 " fill-opacity="1" fill-rule="nonzero"/></g><path fill="#ffffff" d="M 280.808594 282.226562 L 519.621094 282.226562 C 526.929688 282.226562 532.890625 276.265625 532.890625 268.957031 C 532.890625 261.648438 526.929688 255.6875 519.621094 255.6875 L 280.808594 255.6875 C 273.5 255.6875 267.539062 261.648438 267.539062 268.957031 C 267.539062 276.265625 273.5 282.226562 280.808594 282.226562 " fill-opacity="1" fill-rule="nonzero"/><path fill="#ffffff" d="M 572.691406 282.226562 C 580 282.226562 585.960938 276.265625 585.960938 268.957031 C 585.960938 261.648438 580 255.6875 572.691406 255.6875 C 565.386719 255.6875 559.425781 261.648438 559.425781 268.957031 C 559.425781 276.265625 565.386719 282.226562 572.691406 282.226562 " fill-opacity="1" fill-rule="nonzero"/><g fill="#ffffff" fill-opacity="1"><g transform="translate(1229.065947, 509.505926)"><g><path d="M 99.5 0 L 60.347656 -95.5 L 39.507812 -95.5 L 0.351562 0 L 23.859375 0 L 30.03125 -15.507812 L 69.820312 -15.507812 L 75.996094 0 Z M 49.1875 -63.785156 L 49.820312 -66.730469 L 50.03125 -66.730469 L 50.664062 -63.785156 L 62.523438 -33.960938 L 37.332031 -33.960938 Z M 49.1875 -63.785156 "/></g></g></g><g fill="#ffffff" fill-opacity="1"><g transform="translate(1328.912255, 509.505926)"><g><path d="M 31.996094 0 L 31.996094 -28.347656 L 51.363281 -28.347656 C 71.222656 -28.347656 85.46875 -41.820312 85.46875 -62.382812 C 85.46875 -81.539062 71.082031 -95.433594 51.085938 -95.433594 L 9.753906 -95.433594 L 9.753906 0 Z M 31.996094 -75.644531 L 50.171875 -75.644531 C 57.46875 -75.644531 63.222656 -69.046875 63.222656 -62.382812 C 63.222656 -54.3125 57.398438 -48.066406 50.171875 -48.066406 L 31.996094 -48.066406 Z M 31.996094 -75.644531 "/></g></g></g><g fill="#ffffff" fill-opacity="1"><g transform="translate(784.98515, 643.019908)"><g><path d="M 31.996094 0 L 31.996094 -28.347656 L 51.363281 -28.347656 C 71.222656 -28.347656 85.46875 -41.820312 85.46875 -62.382812 C 85.46875 -81.539062 71.082031 -95.433594 51.085938 -95.433594 L 9.753906 -95.433594 L 9.753906 0 Z M 31.996094 -75.644531 L 50.171875 -75.644531 C 57.46875 -75.644531 63.222656 -69.046875 63.222656 -62.382812 C 63.222656 -54.3125 57.398438 -48.066406 50.171875 -48.066406 L 31.996094 -48.066406 Z M 31.996094 -75.644531 "/></g></g></g><g fill="#ffffff" fill-opacity="1"><g transform="translate(872.061236, 643.019908)"><g><path d="M 31.996094 0 L 31.996094 -31.925781 L 46.171875 -31.925781 L 62.871094 0 L 88.34375 0 L 67.996094 -35.4375 C 79.011719 -40.136719 86.097656 -50.3125 86.097656 -63.292969 C 86.097656 -82.378906 71.785156 -95.433594 51.644531 -95.433594 L 9.753906 -95.433594 L 9.753906 0 Z M 31.996094 -75.644531 L 50.734375 -75.644531 C 58.03125 -75.644531 63.855469 -69.960938 63.855469 -63.292969 C 63.855469 -55.855469 58.101562 -50.523438 50.734375 -50.523438 L 31.996094 -50.523438 Z M 31.996094 -75.644531 "/></g></g></g><g fill="#ffffff" fill-opacity="1"><g transform="translate(962.154455, 643.019908)"><g><path d="M 77.679688 0 L 77.679688 -19.789062 L 31.996094 -19.789062 L 31.996094 -39.15625 L 70.660156 -39.15625 L 70.660156 -57.679688 L 31.996094 -57.679688 L 31.996094 -75.714844 L 77.046875 -75.714844 L 77.046875 -95.433594 L 9.753906 -95.433594 L 9.753906 0 Z M 77.679688 0 "/></g></g></g><g fill="#ffffff" fill-opacity="1"><g transform="translate(1043.968092, 643.019908)"><g><path d="M 58.382812 -29.191406 L 58.382812 -46.804688 L 8 -46.804688 L 8 -29.191406 Z M 58.382812 -29.191406 "/></g></g></g><g fill="#ffffff" fill-opacity="1"><g transform="translate(1110.275024, 643.019908)"><g><path d="M 54.664062 2.175781 C 74.941406 2.175781 97.816406 -9.824219 101.886719 -37.609375 L 79.152344 -37.609375 C 75.855469 -23.648438 65.820312 -18.175781 54.03125 -18.175781 C 38.59375 -18.175781 25.894531 -28.839844 25.894531 -47.785156 C 25.894531 -66.242188 38.59375 -77.46875 54.03125 -77.46875 C 65.890625 -77.46875 75.855469 -71.925781 79.222656 -57.960938 L 101.886719 -57.960938 C 97.816406 -85.816406 74.730469 -97.816406 54.664062 -97.816406 C 26.382812 -97.816406 3.648438 -75.644531 3.648438 -47.855469 C 3.648438 -20.140625 26.382812 2.175781 54.664062 2.175781 Z M 54.664062 2.175781 "/></g></g></g><g fill="#ffffff" fill-opacity="1"><g transform="translate(1215.874949, 643.019908)"><g><path d="M 99.5 0 L 60.347656 -95.5 L 39.507812 -95.5 L 0.351562 0 L 23.859375 0 L 30.03125 -15.507812 L 69.820312 -15.507812 L 75.996094 0 Z M 49.1875 -63.785156 L 49.820312 -66.730469 L 50.03125 -66.730469 L 50.664062 -63.785156 L 62.523438 -33.960938 L 37.332031 -33.960938 Z M 49.1875 -63.785156 "/></g></g></g><g fill="#ffffff" fill-opacity="1"><g transform="translate(1315.721245, 643.019908)"><g><path d="M 72.066406 0 L 72.066406 -19.789062 L 31.996094 -19.789062 L 31.996094 -95.433594 L 9.753906 -95.433594 L 9.753906 0 Z M 72.066406 0 "/></g></g></g><g fill="#ffffff" fill-opacity="1"><g transform="translate(1390.588448, 643.019908)"><g><path d="M 54.664062 2.175781 C 74.941406 2.175781 97.816406 -9.824219 101.886719 -37.609375 L 79.152344 -37.609375 C 75.855469 -23.648438 65.820312 -18.175781 54.03125 -18.175781 C 38.59375 -18.175781 25.894531 -28.839844 25.894531 -47.785156 C 25.894531 -66.242188 38.59375 -77.46875 54.03125 -77.46875 C 65.890625 -77.46875 75.855469 -71.925781 79.222656 -57.960938 L 101.886719 -57.960938 C 97.816406 -85.816406 74.730469 -97.816406 54.664062 -97.816406 C 26.382812 -97.816406 3.648438 -75.644531 3.648438 -47.855469 C 3.648438 -20.140625 26.382812 2.175781 54.664062 2.175781 Z M 54.664062 2.175781 "/></g></g></g><g fill="#ffffff" fill-opacity="1"><g transform="translate(1496.188374, 643.019908)"><g><path d="M 50.242188 2.175781 C 75.574219 2.175781 92.132812 -14.175781 92.132812 -36.839844 L 92.132812 -95.433594 L 69.890625 -95.433594 L 69.890625 -38.453125 C 69.890625 -26.804688 62.800781 -17.964844 50.242188 -17.964844 C 37.402344 -17.964844 30.453125 -26.875 30.453125 -38.453125 L 30.453125 -95.433594 L 8.28125 -95.433594 L 8.28125 -36.839844 C 8.28125 -12.769531 26.523438 2.175781 50.242188 2.175781 Z M 50.242188 2.175781 "/></g></g></g><g fill="#ffffff" fill-opacity="1"><g transform="translate(1596.595997, 643.019908)"><g><path d="M 72.066406 0 L 72.066406 -19.789062 L 31.996094 -19.789062 L 31.996094 -95.433594 L 9.753906 -95.433594 L 9.753906 0 Z M 72.066406 0 "/></g></g></g><g fill="#ffffff" fill-opacity="1"><g transform="translate(1671.463201, 643.019908)"><g><path d="M 50.242188 2.175781 C 75.574219 2.175781 92.132812 -14.175781 92.132812 -36.839844 L 92.132812 -95.433594 L 69.890625 -95.433594 L 69.890625 -38.453125 C 69.890625 -26.804688 62.800781 -17.964844 50.242188 -17.964844 C 37.402344 -17.964844 30.453125 -26.875 30.453125 -38.453125 L 30.453125 -95.433594 L 8.28125 -95.433594 L 8.28125 -36.839844 C 8.28125 -12.769531 26.523438 2.175781 50.242188 2.175781 Z M 50.242188 2.175781 "/></g></g></g><g fill="#ffffff" fill-opacity="1"><g transform="translate(1771.870825, 643.019908)"><g><path d="M 44.417969 2.386719 C 68.066406 2.386719 84.273438 -8 84.273438 -27.085938 C 84.273438 -45.679688 69.46875 -53.75 50.3125 -57.609375 C 35.296875 -60.417969 28.980469 -63.433594 28.980469 -69.539062 C 28.980469 -73.890625 31.4375 -78.449219 43.296875 -78.449219 C 54.945312 -78.449219 58.734375 -73.117188 58.734375 -67.785156 L 80.976562 -67.785156 C 80.976562 -86.027344 68.554688 -97.816406 43.574219 -97.816406 C 18.875 -97.816406 6.738281 -86.308594 6.738281 -69.679688 C 6.738281 -49.46875 26.523438 -43.15625 42.59375 -39.296875 C 54.945312 -36.488281 61.75 -33.75 61.75 -27.15625 C 61.75 -19.929688 56.769531 -16.28125 44.347656 -16.28125 C 32.980469 -16.28125 26.59375 -21.613281 26.59375 -29.542969 L 4.351562 -29.542969 C 4.351562 -14.105469 15.15625 2.386719 44.417969 2.386719 Z M 44.417969 2.386719 "/></g></g></g></svg>